<svg width="33" height="28" viewBox="0 0 33 28" fill="none" xmlns="http://www.w3.org/2000/svg">
<path fill-rule="evenodd" clip-rule="evenodd" d="M0.591325 0.896168C1.49075 -0.162939 3.09167 -0.303434 4.16707 0.582366L16.5 10.7409L28.8329 0.582366C29.9083 -0.303434 31.5092 -0.162939 32.4087 0.896168C33.3081 1.95528 33.1654 3.53193 32.09 4.41773L20.4567 14L32.09 23.5823C33.1654 24.4681 33.3081 26.0447 32.4087 27.1038C31.5092 28.1629 29.9083 28.3034 28.8329 27.4176L16.5 17.2591L4.16707 27.4176C3.09167 28.3034 1.49075 28.1629 0.591325 27.1038C-0.308102 26.0447 -0.165446 24.4681 0.909956 23.5823L12.5433 14L0.909956 4.41773C-0.165446 3.53193 -0.308102 1.95528 0.591325 0.896168Z" fill="black"/>
</svg>
