<svg width="12" height="16" viewBox="0 0 12 16" fill="none" xmlns="http://www.w3.org/2000/svg">
<path d="M0.274611 2.88714C0.640736 2.52102 1.23433 2.52102 1.60042 2.88714L4.61627 5.92727V8.54186L0.274611 4.21299C-0.0915149 3.84686 -0.0915149 3.25327 0.274611 2.88714Z" fill="#BB464E"/>
<path d="M3.40781 0.518137C3.90794 0.384137 4.422 0.680918 4.556 1.18104L5.30994 4.00717L4.36656 7.72136L2.74487 1.66632C2.6109 1.1662 2.90768 0.652137 3.40781 0.518137Z" fill="#FFB0B3"/>
<path d="M8.75197 10.3437L7.23403 16H2.05689L6.15809 0.695092C6.29209 0.194967 6.80615 -0.101846 7.30628 0.0321857C7.8064 0.166186 8.10318 0.680248 7.96918 1.18037L6.48968 6.73997C6.83224 5.57306 7.91262 4.71875 9.18887 4.71875C10.1896 4.71875 11.1228 5.25725 11.6244 6.12406C11.8837 6.57222 11.7306 7.14572 11.2825 7.40503C10.8343 7.66434 10.2608 7.51125 10.0015 7.06309C9.834 6.77359 9.52262 6.59375 9.1889 6.59375C8.67197 6.59375 8.2514 7.01431 8.2514 7.53125C8.2514 8.04819 8.67197 8.46875 9.1889 8.46875C9.52262 8.46875 9.834 8.2889 10.0015 7.9994C10.2608 7.55125 10.8344 7.39816 11.2825 7.65747C11.7306 7.91678 11.8837 8.49028 11.6244 8.93844C11.1228 9.80528 10.1896 10.3437 9.18887 10.3437H8.75197Z" fill="#AEA8A8"/>
<path d="M6.15807 0.695092C6.29207 0.194967 6.80614 -0.101846 7.30626 0.0321857C7.80639 0.166186 8.10317 0.680248 7.96917 1.18037L4.00722 16H2.05691L6.15807 0.695092Z" fill="#FFBDBC"/>
</svg>
