<svg width="30" height="30" viewBox="0 0 30 30" fill="none" xmlns="http://www.w3.org/2000/svg">
<path opacity="0.91" d="M12.1822 0C11.4659 -7.52229e-08 10.7566 0.148163 10.0948 0.436029C9.43303 0.723894 8.83173 1.14583 8.32523 1.67773C7.81873 2.20964 7.41695 2.8411 7.14283 3.53607C6.86871 4.23104 6.72763 4.97591 6.72763 5.72814C6.72763 6.48037 6.86871 7.22523 7.14283 7.9202C7.41695 8.61517 7.81873 9.24664 8.32523 9.77854C8.83173 10.3104 9.43303 10.7324 10.0948 11.0202C10.7566 11.3081 11.4659 11.4563 12.1822 11.4563C13.6288 11.4563 15.0162 10.8528 16.0391 9.77854C17.062 8.70431 17.6367 7.24733 17.6367 5.72814C17.6367 4.20894 17.062 2.75197 16.0391 1.67773C15.0162 0.603498 13.6288 0 12.1822 0ZM7.47337 12.6506C3.05844 14.618 0.139332 19.106 0 24.1404C2.98607 27.7253 7.36429 30 12.2594 30C14.9409 30 18.2268 28.7247 20.4545 27.5184C19.8498 26.6697 19.0909 26.1548 17.7273 24.0267C16.63 21.675 15.7649 20.2794 15.6818 16.6093V14.5639L12.2994 20.468L7.47337 12.6506ZM23.2564 8.83656C20.8772 8.83656 16.63 11.6195 16.63 11.6195C16.7801 18.2522 19.2875 25.5922 23.2564 25.5399C23.2608 25.5399 23.2653 25.54 23.2697 25.5399C24.3852 25.525 25.3726 24.9139 26.1781 24.0267C26.9836 23.1396 27.6456 21.9593 28.1889 20.6341C29.2756 17.9837 29.8828 14.7497 29.8828 12.0838V11.7006L29.5765 11.4964C29.5765 11.4964 28.5937 10.8406 27.3366 10.1847C26.0796 9.52874 24.5824 8.83656 23.2617 8.83656H23.2564ZM23.2564 10.2266H23.2617C24.0807 10.2266 25.56 10.8122 26.748 11.4321C27.7415 11.9505 28.2798 12.3111 28.5192 12.467C28.4659 14.847 27.9219 17.7593 26.9691 20.0831C26.4686 21.3037 25.8659 22.3552 25.2193 23.0674C24.5739 23.7782 23.9242 24.1367 23.2564 24.147V10.2266Z" fill="white"/>
</svg>
