<svg width="108" height="40" viewBox="0 0 108 40" fill="none" xmlns="http://www.w3.org/2000/svg">
<g clip-path="url(#clip0_1_7320)">
<path d="M5.99938 7.21773C6.91469 6.30242 8.39867 6.30242 9.31391 7.21773L16.8535 14.818V21.3545L5.99938 10.5323C5.08406 9.61703 5.08406 8.13305 5.99938 7.21773Z" fill="#BB464E"/>
<path d="M13.8326 1.29528C15.0829 0.960281 16.368 1.70223 16.703 2.95255L18.5879 10.0179L16.2295 19.3033L12.1752 4.16575C11.8403 2.91544 12.5823 1.63028 13.8326 1.29528Z" fill="#FFB0B3"/>
<path d="M27.1929 25.8594L23.398 40H10.4552L20.7082 1.73773C21.0432 0.487417 22.3283 -0.254614 23.5786 0.0804642C24.8289 0.415464 25.5709 1.70062 25.2359 2.95093L21.5371 16.8499L21.5374 16.8505C22.3938 13.9333 25.0945 11.7969 28.2851 11.7969C30.7869 11.7969 33.12 13.1431 34.3739 15.3102C35.0222 16.4305 34.6394 17.8643 33.5191 18.5126C32.3988 19.1609 30.965 18.7781 30.3167 17.6577C29.8979 16.934 29.1195 16.4844 28.2852 16.4844C26.9929 16.4844 25.9414 17.5358 25.9414 18.8281C25.9414 20.1205 26.9929 21.1719 28.2852 21.1719C29.1195 21.1719 29.8979 20.7223 30.3167 19.9985C30.965 18.8781 32.3989 18.4954 33.5191 19.1437C34.6395 19.7919 35.0222 21.2257 34.3739 22.3461C33.12 24.5132 30.7869 25.8594 28.2851 25.8594H27.1929Z" fill="white"/>
<path d="M20.7082 1.73773C21.0432 0.487417 22.3283 -0.254614 23.5786 0.0804642C24.8289 0.415464 25.5709 1.70062 25.2359 2.95093L15.331 40H10.4553L20.7082 1.73773Z" fill="#FFBDBC"/>
</g>
<path d="M52.6289 10.3721C52.6289 9.86621 52.9229 9.41504 53.7637 8.62891L55.8555 6.66016C56.5664 5.99023 56.8809 5.55273 56.8809 5.10156C56.8809 4.5957 56.5117 4.25391 55.9785 4.25391C55.5684 4.25391 55.2744 4.41797 54.9121 4.86914C54.4951 5.38867 54.1943 5.56641 53.7363 5.56641C53.0801 5.56641 52.6152 5.12891 52.6152 4.52051C52.6152 3.1875 54.2217 2.01172 56.1289 2.01172C58.1182 2.01172 59.6016 3.20801 59.6016 4.81445C59.6016 5.81934 59.0684 6.77637 57.9814 7.74023L56.3682 9.17578V9.28516H58.6582C59.4512 9.28516 59.9434 9.70898 59.9434 10.3994C59.9434 11.0898 59.4648 11.5 58.6582 11.5H53.8936C53.1416 11.5 52.6289 11.042 52.6289 10.3721ZM63.5801 10.0918C63.5801 11.0283 63.1016 11.5684 62.2744 11.5684C61.4404 11.5684 60.9482 11.0146 60.9482 10.0918V3.73438C60.9482 2.6543 61.4131 2.10059 62.3154 2.10059C62.8965 2.10059 63.2314 2.33301 63.7852 3.11914L66.2803 6.68066H66.3896V3.57715C66.3896 2.64062 66.8682 2.10059 67.6885 2.10059C68.5225 2.10059 69.0215 2.64746 69.0215 3.57715V10.0371C69.0215 11.0352 68.5771 11.5684 67.7363 11.5684C67.1348 11.5684 66.7588 11.3223 66.2051 10.5225L63.6895 6.90625H63.5801V10.0918ZM70.6074 10.0508V3.61816C70.6074 2.71582 71.1543 2.16895 72.043 2.16895H74.6475C77.4229 2.16895 78.9336 3.80957 78.9336 6.83105C78.9336 9.85938 77.4229 11.5 74.6475 11.5H72.043C71.1543 11.5 70.6074 10.9531 70.6074 10.0508ZM73.4717 9.28516H74.1279C75.4473 9.28516 76.001 8.56055 76.001 6.83105C76.001 5.10156 75.4473 4.37695 74.1279 4.37695H73.4717V9.28516ZM59.793 24.5684C58.8701 24.5684 58.3574 24.0215 58.3574 23.0303V20.9385H55.6572V23.0303C55.6572 24.0146 55.1445 24.5684 54.2217 24.5684C53.2988 24.5684 52.7861 24.0215 52.7861 23.0303V16.6387C52.7861 15.6475 53.2988 15.1006 54.2217 15.1006C55.1445 15.1006 55.6572 15.6543 55.6572 16.6387V18.7236H58.3574V16.6387C58.3574 15.6475 58.8701 15.1006 59.793 15.1006C60.7158 15.1006 61.2285 15.6543 61.2285 16.6387V23.0303C61.2285 24.0146 60.7158 24.5684 59.793 24.5684ZM63.5869 24.5684C62.8213 24.5684 62.2812 24.083 62.2812 23.3994C62.2812 23.126 62.3564 22.791 62.5684 22.1621L64.209 17.1514C64.6943 15.6748 65.3916 15.1006 66.6904 15.1006C67.9893 15.1006 68.6729 15.668 69.1582 17.1514L70.792 22.1621C70.9561 22.6748 71.0312 23.0303 71.0312 23.3242C71.0312 24.0762 70.4912 24.5684 69.6709 24.5684C68.9121 24.5684 68.4678 24.1445 68.1943 23.1602L68.0781 22.7363H65.1455L65.0293 23.1602C64.749 24.1719 64.3457 24.5684 63.5869 24.5684ZM65.6924 20.7197H67.5449L66.7041 17.541H66.5537L65.6924 20.7197ZM74.709 23.0918C74.709 24.0283 74.2305 24.5684 73.4033 24.5684C72.5693 24.5684 72.0771 24.0146 72.0771 23.0918V16.7344C72.0771 15.6543 72.542 15.1006 73.4443 15.1006C74.0254 15.1006 74.3604 15.333 74.9141 16.1191L77.4092 19.6807H77.5186V16.5771C77.5186 15.6406 77.9971 15.1006 78.8174 15.1006C79.6514 15.1006 80.1504 15.6475 80.1504 16.5771V23.0371C80.1504 24.0352 79.7061 24.5684 78.8652 24.5684C78.2637 24.5684 77.8877 24.3223 77.334 23.5225L74.8184 19.9062H74.709V23.0918ZM81.7363 23.0508V16.6182C81.7363 15.7158 82.2832 15.1689 83.1719 15.1689H85.7764C88.5518 15.1689 90.0625 16.8096 90.0625 19.8311C90.0625 22.8594 88.5518 24.5 85.7764 24.5H83.1719C82.2832 24.5 81.7363 23.9531 81.7363 23.0508ZM84.6006 22.2852H85.2568C86.5762 22.2852 87.1299 21.5605 87.1299 19.8311C87.1299 18.1016 86.5762 17.377 85.2568 17.377H84.6006V22.2852ZM54.0576 37.5684C53.251 37.5684 52.8135 37.0488 52.8135 36.0918V29.9531C52.8135 28.8115 53.4834 28.1006 54.5635 28.1006C55.4932 28.1006 56.1357 28.5791 56.5596 29.7754L57.8105 33.2891H57.9062L59.1436 29.7617C59.5674 28.5518 60.1758 28.1006 61.1533 28.1006C62.2539 28.1006 62.8828 28.7773 62.8828 29.9531V36.0918C62.8828 37.0215 62.3975 37.5684 61.5703 37.5684C60.7637 37.5684 60.3262 37.0488 60.3262 36.0918V32.2979H60.292L59.0342 35.7295C58.7471 36.5156 58.3711 36.7549 57.8584 36.7549C57.3389 36.7549 56.9492 36.4883 56.6689 35.7295L55.4043 32.2979H55.3701V36.0918C55.3701 37.0215 54.8848 37.5684 54.0576 37.5684ZM65.2139 37.5684C64.4482 37.5684 63.9082 37.083 63.9082 36.3994C63.9082 36.126 63.9834 35.791 64.1953 35.1621L65.8359 30.1514C66.3213 28.6748 67.0186 28.1006 68.3174 28.1006C69.6162 28.1006 70.2998 28.668 70.7852 30.1514L72.4189 35.1621C72.583 35.6748 72.6582 36.0303 72.6582 36.3242C72.6582 37.0762 72.1182 37.5684 71.2979 37.5684C70.5391 37.5684 70.0947 37.1445 69.8213 36.1602L69.7051 35.7363H66.7725L66.6562 36.1602C66.376 37.1719 65.9727 37.5684 65.2139 37.5684ZM67.3193 33.7197H69.1719L68.3311 30.541H68.1807L67.3193 33.7197ZM76.541 36.0303C76.541 37.0215 76.042 37.5684 75.126 37.5684C74.1963 37.5684 73.6699 37.0146 73.6699 36.0303V30.1445C73.6699 28.8252 74.2715 28.1689 75.4883 28.1689H78.0859C80.3213 28.1689 81.6816 29.2832 81.6816 31.1221C81.6816 32.2705 81.1553 33.166 80.1777 33.6855L81.1826 35.3604C81.3398 35.6201 81.415 35.9209 81.415 36.208C81.415 37.0146 80.834 37.5684 79.9863 37.5684C79.2207 37.5684 78.8242 37.2676 78.3594 36.3652L77.3477 34.4102H76.541V36.0303ZM76.541 32.4961H77.71C78.3936 32.4961 78.8584 32.0996 78.8584 31.4092C78.8584 30.7393 78.4072 30.3838 77.6826 30.3838H76.541V32.4961ZM89.6797 37.5752C89.1533 37.5752 88.7295 37.3154 88.3057 36.7412L86.3779 34.1436L85.6943 34.8203V36.0303C85.6943 37.0283 85.2021 37.5684 84.2998 37.5684C83.3633 37.5684 82.8232 37.0078 82.8232 36.0303V29.6387C82.8232 28.6475 83.3359 28.1006 84.2588 28.1006C85.1816 28.1006 85.6943 28.6543 85.6943 29.6387V31.6211H85.8584L88.5654 28.6338C88.9004 28.2646 89.2285 28.1006 89.6182 28.1006C90.3291 28.1006 90.876 28.6475 90.876 29.3516C90.876 29.6934 90.7393 29.9736 90.418 30.3154L88.5039 32.3662L90.5068 35.0117C90.9102 35.5518 91.0332 35.8457 91.0332 36.2354C91.0332 37.0215 90.4795 37.5752 89.6797 37.5752ZM92.2021 36.0508V29.625C92.2021 28.7227 92.749 28.1689 93.6377 28.1689H98.0195C98.6279 28.1689 99.0654 28.6338 99.0654 29.2764C99.0654 29.9189 98.6279 30.377 98.0195 30.377H95.0391V31.8467H97.9033C98.457 31.8467 98.833 32.2568 98.833 32.8516C98.833 33.4463 98.457 33.8428 97.9033 33.8428H95.0391V35.292H97.9785C98.6279 35.292 99.0654 35.7363 99.0654 36.3994C99.0654 37.0625 98.6279 37.5 97.9717 37.5H93.6377C92.749 37.5 92.2021 36.9531 92.2021 36.0508ZM103.297 37.5684C102.401 37.5684 101.861 37.0078 101.861 36.0781V30.4658H100.392C99.7832 30.4658 99.3047 29.96 99.3047 29.3174C99.3047 28.6748 99.7832 28.1689 100.392 28.1689H106.223C106.831 28.1689 107.289 28.668 107.289 29.3174C107.289 29.9668 106.831 30.4658 106.223 30.4658H104.732V36.0781C104.732 37.001 104.186 37.5684 103.297 37.5684Z" fill="white"/>
<defs>
<clipPath id="clip0_1_7320">
<rect width="40" height="40" fill="white" transform="matrix(-1 0 0 1 40 0)"/>
</clipPath>
</defs>
</svg>
