<svg width="123" height="40" viewBox="0 0 123 40" fill="none" xmlns="http://www.w3.org/2000/svg">
<g clip-path="url(#clip0_1239_2)">
<path d="M5.99938 7.21773C6.91469 6.30242 8.39867 6.30242 9.31391 7.21773L16.8535 14.818V21.3545L5.99938 10.5323C5.08406 9.61703 5.08406 8.13305 5.99938 7.21773Z" fill="#BB464E"/>
<path d="M13.8326 1.29528C15.0829 0.960281 16.368 1.70223 16.703 2.95255L18.5879 10.0179L16.2295 19.3033L12.1752 4.16575C11.8403 2.91544 12.5823 1.63028 13.8326 1.29528Z" fill="#FFB0B3"/>
<path d="M27.1929 25.8594L23.398 40H10.4552L20.7082 1.73773C21.0432 0.487417 22.3283 -0.254614 23.5786 0.0804642C24.8289 0.415464 25.5709 1.70062 25.2359 2.95093L21.5371 16.8499L21.5374 16.8505C22.3938 13.9333 25.0945 11.7969 28.2851 11.7969C30.7869 11.7969 33.12 13.1431 34.3739 15.3102C35.0222 16.4305 34.6394 17.8643 33.5191 18.5126C32.3988 19.1609 30.965 18.7781 30.3167 17.6577C29.8979 16.934 29.1195 16.4844 28.2852 16.4844C26.9929 16.4844 25.9414 17.5358 25.9414 18.8281C25.9414 20.1205 26.9929 21.1719 28.2852 21.1719C29.1195 21.1719 29.8979 20.7223 30.3167 19.9985C30.965 18.8781 32.3989 18.4954 33.5191 19.1437C34.6395 19.7919 35.0222 21.2257 34.3739 22.3461C33.12 24.5132 30.7869 25.8594 28.2851 25.8594H27.1929Z" fill="white"/>
<path d="M20.7082 1.73773C21.0432 0.487417 22.3283 -0.254614 23.5786 0.0804642C24.829 0.415464 25.5709 1.70062 25.2359 2.95093L15.3311 40H10.4553L20.7082 1.73773Z" fill="#FFBDBC"/>
</g>
<path d="M53.5654 11.5684C52.7998 11.5684 52.2598 11.083 52.2598 10.3994C52.2598 10.126 52.335 9.79102 52.5469 9.16211L54.1875 4.15137C54.6729 2.6748 55.3701 2.10059 56.6689 2.10059C57.9678 2.10059 58.6514 2.66797 59.1367 4.15137L60.7705 9.16211C60.9346 9.6748 61.0098 10.0303 61.0098 10.3242C61.0098 11.0762 60.4697 11.5684 59.6494 11.5684C58.8906 11.5684 58.4463 11.1445 58.1729 10.1602L58.0566 9.73633H55.124L55.0078 10.1602C54.7275 11.1719 54.3242 11.5684 53.5654 11.5684ZM55.6709 7.71973H57.5234L56.6826 4.54102H56.5322L55.6709 7.71973ZM68.5088 10.3242C68.5088 11.0078 68.0234 11.5 67.3535 11.5H63.4912C62.6025 11.5 62.0557 10.9531 62.0557 10.0508V3.63867C62.0557 2.64746 62.5684 2.10059 63.4912 2.10059C64.4141 2.10059 64.9268 2.6543 64.9268 3.63867V9.14844H67.3535C68.0234 9.14844 68.5088 9.64062 68.5088 10.3242ZM75.8643 10.3242C75.8643 11.0078 75.3789 11.5 74.709 11.5H70.8467C69.958 11.5 69.4111 10.9531 69.4111 10.0508V3.63867C69.4111 2.64746 69.9238 2.10059 70.8467 2.10059C71.7695 2.10059 72.2822 2.6543 72.2822 3.63867V9.14844H74.709C75.3789 9.14844 75.8643 9.64062 75.8643 10.3242ZM76.2129 7.68555C76.2129 6.92676 76.7734 6.44141 77.6416 6.44141H79.5078C80.3828 6.44141 80.9365 6.91992 80.9365 7.67871C80.9365 8.43066 80.3828 8.90234 79.5078 8.90234H77.6416C76.7598 8.90234 76.2129 8.4375 76.2129 7.68555ZM54.2422 24.5684C53.3125 24.5684 52.7861 24.0146 52.7861 23.0303V16.6387C52.7861 15.6475 53.2988 15.1006 54.2217 15.1006C55.1445 15.1006 55.6572 15.6543 55.6572 16.6387V23.0303C55.6572 24.0215 55.1582 24.5684 54.2422 24.5684ZM59.8613 23.0918C59.8613 24.0283 59.3828 24.5684 58.5557 24.5684C57.7217 24.5684 57.2295 24.0146 57.2295 23.0918V16.7344C57.2295 15.6543 57.6943 15.1006 58.5967 15.1006C59.1777 15.1006 59.5127 15.333 60.0664 16.1191L62.5615 19.6807H62.6709V16.5771C62.6709 15.6406 63.1494 15.1006 63.9697 15.1006C64.8037 15.1006 65.3027 15.6475 65.3027 16.5771V23.0371C65.3027 24.0352 64.8584 24.5684 64.0176 24.5684C63.416 24.5684 63.04 24.3223 62.4863 23.5225L59.9707 19.9062H59.8613V23.0918ZM66.5674 20.1455V19.4004C66.5674 16.666 68.1328 15.0117 70.8467 15.0117C72.1182 15.0117 73.3008 15.3877 73.9844 16.0234C74.4287 16.4404 74.6953 16.9258 74.6953 17.377C74.6953 18.04 74.2168 18.498 73.54 18.498C73.123 18.498 72.7949 18.3477 72.3506 17.9785C71.8652 17.5752 71.5098 17.3975 71.0449 17.3975C70.0195 17.3975 69.4385 18.1904 69.4385 19.5645V19.9883C69.4385 21.5059 69.999 22.3125 71.0449 22.3125C71.5098 22.3125 71.9268 22.1279 72.3916 21.7314C72.8496 21.3418 73.1504 21.2051 73.5537 21.2051C74.2305 21.2051 74.709 21.6631 74.709 22.3262C74.709 22.9414 74.3057 23.5361 73.6426 23.9668C72.9521 24.4248 71.9814 24.7051 70.8467 24.7051C68.0713 24.7051 66.5674 23.0508 66.5674 20.1455ZM82.4131 23.3242C82.4131 24.0078 81.9277 24.5 81.2578 24.5H77.3955C76.5068 24.5 75.96 23.9531 75.96 23.0508V16.6387C75.96 15.6475 76.4727 15.1006 77.3955 15.1006C78.3184 15.1006 78.8311 15.6543 78.8311 16.6387V22.1484H81.2578C81.9277 22.1484 82.4131 22.6406 82.4131 23.3242ZM91.1973 21.3213C91.1973 23.3994 89.6045 24.7051 87.0684 24.7051C84.5322 24.7051 82.9395 23.3994 82.9395 21.3213V16.5977C82.9395 15.6611 83.4727 15.1006 84.375 15.1006C85.2705 15.1006 85.8105 15.6611 85.8105 16.5977V20.877C85.8105 21.8066 86.2549 22.3125 87.0684 22.3125C87.8682 22.3125 88.3262 21.793 88.3262 20.877V16.5977C88.3262 15.6611 88.8594 15.1006 89.7617 15.1006C90.6572 15.1006 91.1973 15.6611 91.1973 16.5977V21.3213ZM92.3457 22.5859C92.3457 21.9229 92.8379 21.4512 93.4326 21.4512C93.7812 21.4512 94.1162 21.5674 94.5605 21.8682C95.1621 22.2715 95.8252 22.5107 96.3311 22.5107C97.124 22.5107 97.5068 22.2852 97.5068 21.8203C97.5068 21.4443 97.1445 21.2324 96.2012 21.0547L95.0732 20.8428C93.2891 20.5078 92.4209 19.6123 92.4209 18.0742C92.4209 16.1807 93.8701 15.0117 96.2148 15.0117C97.541 15.0117 98.7441 15.3945 99.4004 16.0303C99.7695 16.3857 99.9541 16.7549 99.9541 17.1514C99.9541 17.7461 99.5098 18.1562 98.8672 18.1562C98.5596 18.1562 98.1973 18.0195 97.8145 17.7529C97.2402 17.3564 96.8096 17.1992 96.2422 17.1992C95.6338 17.1992 95.2646 17.4453 95.2646 17.835C95.2646 18.2451 95.6201 18.5254 96.4814 18.6689L97.6436 18.8604C99.4072 19.1543 100.31 20.0498 100.31 21.5127C100.31 23.4473 98.6826 24.7051 96.1875 24.7051C94.793 24.7051 93.5488 24.3018 92.8789 23.6523C92.5371 23.3174 92.3457 22.9551 92.3457 22.5859ZM102.928 24.5684C101.998 24.5684 101.472 24.0146 101.472 23.0303V16.6387C101.472 15.6475 101.984 15.1006 102.907 15.1006C103.83 15.1006 104.343 15.6543 104.343 16.6387V23.0303C104.343 24.0215 103.844 24.5684 102.928 24.5684ZM109.812 21.5605L111.145 16.5088C111.404 15.5039 111.821 15.1006 112.594 15.1006C113.421 15.1006 113.981 15.6064 113.981 16.3516C113.981 16.6318 113.899 17.0488 113.77 17.4658L112.184 22.5176C111.726 23.9668 110.994 24.5684 109.702 24.5684C108.396 24.5684 107.645 23.9531 107.193 22.5176L105.607 17.4658C105.471 17.0352 105.396 16.6523 105.396 16.3789C105.396 15.627 105.97 15.1006 106.79 15.1006C107.528 15.1006 108.014 15.5586 108.28 16.5088L109.682 21.5605H109.812ZM115.034 23.0508V16.625C115.034 15.7227 115.581 15.1689 116.47 15.1689H120.852C121.46 15.1689 121.897 15.6338 121.897 16.2764C121.897 16.9189 121.46 17.377 120.852 17.377H117.871V18.8467H120.735C121.289 18.8467 121.665 19.2568 121.665 19.8516C121.665 20.4463 121.289 20.8428 120.735 20.8428H117.871V22.292H120.811C121.46 22.292 121.897 22.7363 121.897 23.3994C121.897 24.0625 121.46 24.5 120.804 24.5H116.47C115.581 24.5 115.034 23.9531 115.034 23.0508ZM54.0576 37.5684C53.251 37.5684 52.8135 37.0488 52.8135 36.0918V29.9531C52.8135 28.8115 53.4834 28.1006 54.5635 28.1006C55.4932 28.1006 56.1357 28.5791 56.5596 29.7754L57.8105 33.2891H57.9062L59.1436 29.7617C59.5674 28.5518 60.1758 28.1006 61.1533 28.1006C62.2539 28.1006 62.8828 28.7773 62.8828 29.9531V36.0918C62.8828 37.0215 62.3975 37.5684 61.5703 37.5684C60.7637 37.5684 60.3262 37.0488 60.3262 36.0918V32.2979H60.292L59.0342 35.7295C58.7471 36.5156 58.3711 36.7549 57.8584 36.7549C57.3389 36.7549 56.9492 36.4883 56.6689 35.7295L55.4043 32.2979H55.3701V36.0918C55.3701 37.0215 54.8848 37.5684 54.0576 37.5684ZM65.2139 37.5684C64.4482 37.5684 63.9082 37.083 63.9082 36.3994C63.9082 36.126 63.9834 35.791 64.1953 35.1621L65.8359 30.1514C66.3213 28.6748 67.0186 28.1006 68.3174 28.1006C69.6162 28.1006 70.2998 28.668 70.7852 30.1514L72.4189 35.1621C72.583 35.6748 72.6582 36.0303 72.6582 36.3242C72.6582 37.0762 72.1182 37.5684 71.2979 37.5684C70.5391 37.5684 70.0947 37.1445 69.8213 36.1602L69.7051 35.7363H66.7725L66.6562 36.1602C66.376 37.1719 65.9727 37.5684 65.2139 37.5684ZM67.3193 33.7197H69.1719L68.3311 30.541H68.1807L67.3193 33.7197ZM76.541 36.0303C76.541 37.0215 76.042 37.5684 75.126 37.5684C74.1963 37.5684 73.6699 37.0146 73.6699 36.0303V30.1445C73.6699 28.8252 74.2715 28.1689 75.4883 28.1689H78.0859C80.3213 28.1689 81.6816 29.2832 81.6816 31.1221C81.6816 32.2705 81.1553 33.166 80.1777 33.6855L81.1826 35.3604C81.3398 35.6201 81.415 35.9209 81.415 36.208C81.415 37.0146 80.834 37.5684 79.9863 37.5684C79.2207 37.5684 78.8242 37.2676 78.3594 36.3652L77.3477 34.4102H76.541V36.0303ZM76.541 32.4961H77.71C78.3936 32.4961 78.8584 32.0996 78.8584 31.4092C78.8584 30.7393 78.4072 30.3838 77.6826 30.3838H76.541V32.4961ZM89.6797 37.5752C89.1533 37.5752 88.7295 37.3154 88.3057 36.7412L86.3779 34.1436L85.6943 34.8203V36.0303C85.6943 37.0283 85.2021 37.5684 84.2998 37.5684C83.3633 37.5684 82.8232 37.0078 82.8232 36.0303V29.6387C82.8232 28.6475 83.3359 28.1006 84.2588 28.1006C85.1816 28.1006 85.6943 28.6543 85.6943 29.6387V31.6211H85.8584L88.5654 28.6338C88.9004 28.2646 89.2285 28.1006 89.6182 28.1006C90.3291 28.1006 90.876 28.6475 90.876 29.3516C90.876 29.6934 90.7393 29.9736 90.418 30.3154L88.5039 32.3662L90.5068 35.0117C90.9102 35.5518 91.0332 35.8457 91.0332 36.2354C91.0332 37.0215 90.4795 37.5752 89.6797 37.5752ZM92.2021 36.0508V29.625C92.2021 28.7227 92.749 28.1689 93.6377 28.1689H98.0195C98.6279 28.1689 99.0654 28.6338 99.0654 29.2764C99.0654 29.9189 98.6279 30.377 98.0195 30.377H95.0391V31.8467H97.9033C98.457 31.8467 98.833 32.2568 98.833 32.8516C98.833 33.4463 98.457 33.8428 97.9033 33.8428H95.0391V35.292H97.9785C98.6279 35.292 99.0654 35.7363 99.0654 36.3994C99.0654 37.0625 98.6279 37.5 97.9717 37.5H93.6377C92.749 37.5 92.2021 36.9531 92.2021 36.0508ZM103.297 37.5684C102.401 37.5684 101.861 37.0078 101.861 36.0781V30.4658H100.392C99.7832 30.4658 99.3047 29.96 99.3047 29.3174C99.3047 28.6748 99.7832 28.1689 100.392 28.1689H106.223C106.831 28.1689 107.289 28.668 107.289 29.3174C107.289 29.9668 106.831 30.4658 106.223 30.4658H104.732V36.0781C104.732 37.001 104.186 37.5684 103.297 37.5684Z" fill="white"/>
<defs>
<clipPath id="clip0_1239_2">
<rect width="40" height="40" fill="white" transform="matrix(-1 0 0 1 40 0)"/>
</clipPath>
</defs>
</svg>
