<svg width="28" height="28" viewBox="0 0 28 28" fill="none" xmlns="http://www.w3.org/2000/svg">
<path d="M19.2155 11.2552C19.2155 6.85868 15.6518 3.29428 11.2552 3.29414C6.85859 3.29414 3.29414 6.85859 3.29414 11.2552C3.29428 15.6518 6.85868 19.2155 11.2552 19.2155C15.6517 19.2154 19.2154 15.6517 19.2155 11.2552ZM22.5097 11.2552C22.5096 13.7665 21.6868 16.0853 20.2964 17.9577L27.5184 25.1894C28.1612 25.833 28.1604 26.8756 27.5168 27.5184C26.8732 28.1612 25.8305 28.1604 25.1878 27.5168L17.9682 20.2884C16.0939 21.6835 13.7713 22.5096 11.2552 22.5097C5.03938 22.5097 0.00014516 17.4711 0 11.2552C0 5.03929 5.03929 0 11.2552 0C17.4711 0.000145169 22.5097 5.03938 22.5097 11.2552Z" fill="#c44e56"/>
</svg>
